<svg width="140" height="64" viewBox="0 0 140 64" fill="none" xmlns="http://www.w3.org/2000/svg">
<path d="M42.5312 32.1416H33.2881V39.7002H44.0254V42H30.4756V20.6719H43.8789V22.9863H33.2881V29.8418H42.5312V32.1416ZM56.8867 42C56.7305 41.6875 56.6035 41.1309 56.5059 40.3301C55.2461 41.6387 53.7422 42.293 51.9941 42.293C50.4316 42.293 49.1475 41.8535 48.1416 40.9746C47.1455 40.0859 46.6475 38.9629 46.6475 37.6055C46.6475 35.9551 47.2725 34.6758 48.5225 33.7676C49.7822 32.8496 51.5498 32.3906 53.8252 32.3906H56.4619V31.1455C56.4619 30.1982 56.1787 29.4463 55.6123 28.8896C55.0459 28.3232 54.2109 28.04 53.1074 28.04C52.1406 28.04 51.3301 28.2842 50.6758 28.7725C50.0215 29.2607 49.6943 29.8516 49.6943 30.5449H46.9697C46.9697 29.7539 47.248 28.9922 47.8047 28.2598C48.3711 27.5176 49.1328 26.9316 50.0898 26.502C51.0566 26.0723 52.1162 25.8574 53.2686 25.8574C55.0947 25.8574 56.5254 26.3164 57.5605 27.2344C58.5957 28.1426 59.1328 29.3975 59.1719 30.999V38.2939C59.1719 39.749 59.3574 40.9062 59.7285 41.7656V42H56.8867ZM52.3896 39.9346C53.2393 39.9346 54.0449 39.7148 54.8066 39.2754C55.5684 38.8359 56.1201 38.2646 56.4619 37.5615V34.3096H54.3379C51.0176 34.3096 49.3574 35.2812 49.3574 37.2246C49.3574 38.0742 49.6406 38.7383 50.207 39.2168C50.7734 39.6953 51.501 39.9346 52.3896 39.9346ZM67.0967 22.3125V26.1504H70.0557V28.2451H67.0967V38.0742C67.0967 38.709 67.2285 39.1875 67.4922 39.5098C67.7559 39.8223 68.2051 39.9785 68.8398 39.9785C69.1523 39.9785 69.582 39.9199 70.1289 39.8027V42C69.416 42.1953 68.7227 42.293 68.0488 42.293C66.8379 42.293 65.9248 41.9268 65.3096 41.1943C64.6943 40.4619 64.3867 39.4219 64.3867 38.0742V28.2451H61.501V26.1504H64.3867V22.3125H67.0967ZM79.8115 42.293C77.6631 42.293 75.915 41.5898 74.5674 40.1836C73.2197 38.7676 72.5459 36.8779 72.5459 34.5146V34.0166C72.5459 32.4443 72.8438 31.043 73.4395 29.8125C74.0449 28.5723 74.8848 27.6055 75.959 26.9121C77.043 26.209 78.2148 25.8574 79.4746 25.8574C81.5352 25.8574 83.1367 26.5361 84.2793 27.8936C85.4219 29.251 85.9932 31.1943 85.9932 33.7236V34.8516H75.2559C75.2949 36.4141 75.749 37.6787 76.6182 38.6455C77.4971 39.6025 78.6104 40.0811 79.958 40.0811C80.915 40.0811 81.7256 39.8857 82.3896 39.4951C83.0537 39.1045 83.6348 38.5869 84.1328 37.9424L85.7881 39.2314C84.46 41.2725 82.4678 42.293 79.8115 42.293ZM79.4746 28.084C78.3809 28.084 77.4629 28.4844 76.7207 29.2852C75.9785 30.0762 75.5195 31.1895 75.3438 32.625H83.2832V32.4199C83.2051 31.043 82.834 29.9785 82.1699 29.2266C81.5059 28.4648 80.6074 28.084 79.4746 28.084ZM96.8037 28.582C96.3936 28.5137 95.9492 28.4795 95.4707 28.4795C93.6934 28.4795 92.4873 29.2363 91.8525 30.75V42H89.1426V26.1504H91.7793L91.8232 27.9814C92.7119 26.5654 93.9717 25.8574 95.6025 25.8574C96.1299 25.8574 96.5303 25.9258 96.8037 26.0625V28.582ZM104.758 38.0303L108.449 26.1504H111.35L104.978 44.4463C103.991 47.083 102.424 48.4014 100.275 48.4014L99.7627 48.3574L98.752 48.167V45.9697L99.4844 46.0283C100.402 46.0283 101.115 45.8428 101.623 45.4717C102.141 45.1006 102.565 44.4219 102.897 43.4355L103.498 41.8242L97.8438 26.1504H100.803L104.758 38.0303Z" fill="white"/>
<rect x="0.75" y="0.75" width="138.5" height="62.3235" stroke="white" stroke-width="1.5"/>
</svg>
