<svg width="100" height="46" viewBox="0 0 100 46" fill="none" xmlns="http://www.w3.org/2000/svg">
<path d="M30.1719 23.0991H23.7017V28.3901H31.2178V30H21.7329V15.0703H31.1152V16.6904H23.7017V21.4893H30.1719V23.0991ZM40.2207 30C40.1113 29.7812 40.0225 29.3916 39.9541 28.8311C39.0723 29.7471 38.0195 30.2051 36.7959 30.2051C35.7021 30.2051 34.8032 29.8975 34.0991 29.2822C33.4019 28.6602 33.0532 27.874 33.0532 26.9238C33.0532 25.7686 33.4907 24.873 34.3657 24.2373C35.2476 23.5947 36.4849 23.2734 38.0776 23.2734H39.9233V22.4019C39.9233 21.7388 39.7251 21.2124 39.3286 20.8228C38.9321 20.4263 38.3477 20.228 37.5752 20.228C36.8984 20.228 36.3311 20.3989 35.873 20.7407C35.415 21.0825 35.186 21.4961 35.186 21.9814H33.2788C33.2788 21.4277 33.4736 20.8945 33.8633 20.3818C34.2598 19.8623 34.793 19.4521 35.4629 19.1514C36.1396 18.8506 36.8813 18.7002 37.688 18.7002C38.9663 18.7002 39.9678 19.0215 40.6924 19.6641C41.417 20.2998 41.793 21.1782 41.8203 22.2993V27.4058C41.8203 28.4243 41.9502 29.2344 42.21 29.8359V30H40.2207ZM37.0728 28.5542C37.6675 28.5542 38.2314 28.4004 38.7646 28.0928C39.2979 27.7852 39.6841 27.3853 39.9233 26.8931V24.6167H38.4365C36.1123 24.6167 34.9502 25.2969 34.9502 26.6572C34.9502 27.252 35.1484 27.7168 35.5449 28.0518C35.9414 28.3867 36.4507 28.5542 37.0728 28.5542ZM47.3677 16.2188V18.9053H49.439V20.3716H47.3677V27.252C47.3677 27.6963 47.46 28.0312 47.6445 28.2568C47.8291 28.4756 48.1436 28.585 48.5879 28.585C48.8066 28.585 49.1074 28.5439 49.4902 28.4619V30C48.9912 30.1367 48.5059 30.2051 48.0342 30.2051C47.1865 30.2051 46.5474 29.9487 46.1167 29.436C45.686 28.9233 45.4707 28.1953 45.4707 27.252V20.3716H43.4507V18.9053H45.4707V16.2188H47.3677ZM56.2681 30.2051C54.7642 30.2051 53.5405 29.7129 52.5972 28.7285C51.6538 27.7373 51.1821 26.4146 51.1821 24.7603V24.4116C51.1821 23.311 51.3906 22.3301 51.8076 21.4688C52.2314 20.6006 52.8193 19.9238 53.5713 19.4385C54.3301 18.9463 55.1504 18.7002 56.0322 18.7002C57.4746 18.7002 58.5957 19.1753 59.3955 20.1255C60.1953 21.0757 60.5952 22.436 60.5952 24.2065V24.9961H53.0791C53.1064 26.0898 53.4243 26.9751 54.0327 27.6519C54.6479 28.3218 55.4272 28.6567 56.3706 28.6567C57.0405 28.6567 57.6079 28.52 58.0728 28.2466C58.5376 27.9731 58.9443 27.6108 59.293 27.1597L60.4517 28.062C59.522 29.4907 58.1274 30.2051 56.2681 30.2051ZM56.0322 20.2588C55.2666 20.2588 54.624 20.5391 54.1045 21.0996C53.585 21.6533 53.2637 22.4326 53.1406 23.4375H58.6982V23.2939C58.6436 22.3301 58.3838 21.585 57.9189 21.0586C57.4541 20.5254 56.8252 20.2588 56.0322 20.2588ZM68.1626 20.6074C67.8755 20.5596 67.5645 20.5356 67.2295 20.5356C65.9854 20.5356 65.1411 21.0654 64.6968 22.125V30H62.7998V18.9053H64.6455L64.6763 20.187C65.2983 19.1958 66.1802 18.7002 67.3218 18.7002C67.6909 18.7002 67.9712 18.748 68.1626 18.8438V20.6074ZM73.7305 27.2212L76.3145 18.9053H78.3447L73.8843 31.7124C73.1938 33.5581 72.0967 34.481 70.5928 34.481L70.2339 34.4502L69.5264 34.3169V32.7788L70.0391 32.8198C70.6816 32.8198 71.1807 32.6899 71.5361 32.4302C71.8984 32.1704 72.1958 31.6953 72.4282 31.0049L72.8486 29.877L68.8906 18.9053H70.9619L73.7305 27.2212Z" fill="white"/>
<rect x="0.75" y="0.75" width="98.5" height="44.0882" stroke="white" stroke-width="1.5"/>
</svg>
